<svg version="1.1" id="Camada_1" xmlns="http://www.w3.org/2000/svg" x="0" y="0" viewBox="0 0 450 148" xml:space="preserve"><path d="M126.23 72.3c0-2.68-1.04-5.2-2.93-7.09L76.7 18.55c-.61-.61-1.61-.61-2.22 0L27.9 65.21a9.97 9.97 0 0 0-2.94 7.09v.03c-.14 2.53.8 4.99 2.59 6.78l43.07 43.14c.61.62.96 1.45.96 2.32v4.5c0 .94 1.14 1.41 1.81.74l49.9-50.35a9.97 9.97 0 0 0 2.94-7.09v-.03c-.01-.02 0-.03 0-.04zm-54.64 34.79c-.02.78-.97 1.16-1.52.61L37.2 74.72s-1.04-.94-1.04-2.57c0-1.22.57-2.04.89-2.42l4.35-4.35a.92.92 0 0 1 1.31.01l28.9 29.52c.17.17.26.4.25.64l-.27 11.54zm-.67-22.18L45.55 62.83c-.46-.4-.49-1.11-.05-1.54l11.38-11.38c.41-.41 1.08-.41 1.49 0l14.02 14.01a.7.7 0 0 1 .21.53l-.47 19.93c-.02.61-.75.94-1.21.53zm1.1-27.92l-11.21-9.78a.818.818 0 0 1-.04-1.2l11.75-11.75c.29-.29.79-.08.78.34l-.52 22.06c-.01.39-.47.59-.76.33zm6.65-22.72l11.75 11.75c.34.34.32.89-.04 1.2L79.17 57c-.29.26-.75.05-.76-.33l-.52-22.07c-.01-.41.49-.62.78-.33zm.13 29.64L92.82 49.9c.41-.41 1.08-.41 1.49 0l11.38 11.38c.43.43.41 1.14-.05 1.54L80.27 84.91c-.47.41-1.19.08-1.21-.53l-.47-19.93c-.01-.2.07-.39.21-.54zm35.19 10.81L81.11 107.7c-.55.55-1.5.18-1.52-.61l-.27-11.54a.89.89 0 0 1 .25-.64l28.9-29.52a.92.92 0 0 1 1.31-.01l4.35 4.35c.33.38.89 1.2.89 2.42 0 1.62-1.03 2.57-1.03 2.57zm299.97-18.64c-1.65 1.05-3.47 2.74-4.65 3.91a.753.753 0 0 1-1.28-.52l-.15-5.76a.841.841 0 0 0-.84-.82h-8.56c-.47 0-.84.38-.84.84v56.58c0 .43.35.78.78.78h3.83c3.86 0 6.45-3.28 6.45-6.34V79.1c0-10.86 8.95-14.06 15.13-14.06h.29c.46 0 .83-.37.83-.83v-9.5c0-.44-.34-.8-.77-.83-1.81-.11-6.44-.12-10.22 2.2zM201.65 78.23c-6.96-6.87-18.08-9.97-27.01-12.45-3.57-.99-6.65-1.85-8.78-2.77-2.01-.91-3.56-1.78-4.58-3.03-1-1.23-1.49-2.77-1.49-4.7 0-3.33 1.29-5.76 3.95-7.44 2.77-1.74 6.91-2.63 12.28-2.63 10.21.24 14.43 3.36 17.59 6.52.3.3 1.33 1.37 1.96 2.04.29.3.77.3 1.05-.01.58-.62 1.47-1.58 1.68-1.82 3.03-3.51 2.93-6.96-.29-9.97-.93-.85-1.96-1.6-3.05-2.23-4.37-2.52-10.7-3.8-18.82-3.8-8.75 0-15.61 1.71-20.37 5.08-4.53 3.21-7.35 9.52-7.35 16.48 0 6.06 4.56 10.52 5.48 11.35 1.74 1.58 4.13 3.03 7.11 4.31 3.28 1.35 7.11 2.45 11.17 3.61 8.2 2.34 16.67 4.77 20.94 9.37.91 1.24 1.37 2.91 1.37 4.96 0 3.74-1.48 6.49-4.52 8.41-3.15 1.99-7.75 3-13.67 3-13.44 0-19.43-7.08-21.71-10.98-.48-.81-1-2.11-1.35-3.02a.725.725 0 0 0-1.19-.25l-3.53 3.51c-.13.12-3.07 3.02-1.27 7.35 4.45 8.56 14.11 12.91 28.7 12.91 9.38 0 16.79-1.86 22.01-5.52 5.34-3.74 8.05-9.1 8.05-15.91 0-2.67-.38-5.04-1.14-7.05-.77-2.02-1.84-3.79-3.22-5.32zm25.59 24.81c-1.99 0-3.11-1.02-3.6-1.62-.47-.59-1.04-1.89-1.04-4.8V62.26c0-.41.33-.74.74-.74h3.58c3.6 0 6.5-3.24 6.5-5.92v-1.96c0-.41-.33-.74-.74-.74h-9.34c-.41 0-.74-.33-.74-.74v-8.49c0-.41-.33-.74-.74-.74h-6.55a.73.73 0 0 0-.71.55l-2.35 8.87c-.09.32-.38.55-.71.55h-3.8c-.41 0-.74.33-.74.74v7.15c0 .41.33.74.74.74h3.06c.41 0 .74.33.74.74v36.3c0 10.96 6.42 13.26 11.82 13.26 3.17 0 6.31-.41 9.34-1.23l.16-.04c.36-.1.62-.43.62-.8v-6.65c0-.53-.48-.92-1-.82l-.26.05c-2.3.46-3.93.7-4.98.7zm28.32-46.96c-1.65 1.05-3.47 2.74-4.65 3.91a.753.753 0 0 1-1.28-.52l-.15-5.76a.841.841 0 0 0-.84-.82h-8.56c-.47 0-.84.38-.84.84v56.58c0 .43.35.78.78.78h3.83c3.86 0 6.45-3.28 6.45-6.34V79.1c0-10.86 8.95-14.06 15.13-14.06h.29c.46 0 .83-.37.83-.83v-9.5c0-.44-.34-.8-.77-.83-1.8-.11-6.43-.12-10.22 2.2zm16.78-13.65v3.5c0 .42.34.76.76.76h3.83c3.13 0 6.48-2.6 6.48-6.47v-3.44a.76.76 0 0 0-.76-.76h-3.68c-4.1 0-6.63 3.33-6.63 6.41zm0 67.85c0 .46.37.83.83.83h3.69c3.55 0 6.55-2.96 6.55-6.45V53.72c0-.46-.37-.83-.83-.83h-9.41c-.46 0-.83.37-.83.83v56.56zm64.37-67.94c0-3.09-2.64-6.4-6.57-6.4h-3.75c-.41 0-.75.33-.75.75v21.5c0 .7-.89 1.01-1.32.46-1.21-1.56-2.43-2.68-3.7-3.37-2.87-1.57-6.48-2.37-10.72-2.37-9.53 0-20.89 5.27-20.89 30.36 0 9.48 1.68 16.69 5 21.44 3.4 4.86 8.74 7.33 15.89 7.33 4.21 0 7.81-.8 10.69-2.37 1.53-.83 2.9-1.95 4.12-3.36.46-.53 1.33-.25 1.4.45.12 1.25.26 2.76.34 3.63.04.41.38.72.8.72h8.66c.44 0 .8-.36.8-.8V42.34zm-14.34 55.85c-2.1 3.23-5.44 4.81-10.19 4.81-4.13 0-7.02-1.43-8.83-4.38-1.88-3.07-2.84-8.34-2.84-15.65 0-7.68 1.04-13.81 2.86-16.83 1.82-3.03 4.74-4.5 8.9-4.5 4.69 0 8 1.48 10.1 4.53 2.07 3 3.26 8.9 3.26 16.21.02 7.15-1.09 12.47-3.26 15.81zM387.6 96a.839.839 0 0 0-1.24.01c-1.57 1.77-6.43 6.32-15.02 6.32h-.05c-11.1 0-16.62-9.45-17.41-17.36-.05-.49.32-.91.81-.91h30.87c1.35 0 3.33-.55 4.8-2.08 1.22-1.28 1.82-2.97 1.73-4.94 0-16.89-9.15-24.13-24.65-24.13-8.02 0-14.3 2.52-18.66 7.49-4.2 4.79-6.52 12.7-6.52 22.28 0 9.33 2.03 15.8 6.61 21.01 7.1 7.53 15.91 8.35 19.37 8.35 4.8 0 14.34-1.16 19.65-5.54 2.09-1.74 2.52-3.73 2.51-5.08 0-2.11-1.79-4.33-2.8-5.42zm-20.31-34.38c12.1 0 13.38 8.85 13.49 11.57.02.43-.32.79-.75.79h-25.26c-.46 0-.81-.4-.75-.85.37-2.79 2.4-11.51 13.27-11.51z" fill="#fff"/></svg>